<svg xmlns="http://www.w3.org/2000/svg" xmlns:xlink="http://www.w3.org/1999/xlink" fill="#fff" height="800px" width="800px" version="1.1" id="Capa_1" viewBox="0 0 39.19 39.19" xml:space="preserve">
  <rect width="39.19" height="39.19" x="0" y="0" fill="#000"></rect>
<g>
  <path d="M37.69,0H1.5C0.672,0,0,0.671,0,1.5v36.19c0,0.829,0.672,1.5,1.5,1.5H37.69c0.828,0,1.5-0.671,1.5-1.5V1.5   C39.19,0.671,38.518,0,37.69,0z M36.19,36.19H3V3H36.19V36.19z"/>
  <path d="M11.861,28.583c1.93,1.386,4.152,2.208,6.42,2.505v2.11c0,0.726,0.587,1.313,1.313,1.313c0.726,0,1.313-0.587,1.313-1.313   V31.18c4.337-0.257,7.334-2.65,7.334-6.785V24.33c0-3.843-2.521-5.45-6.993-6.615c-0.125-0.032-0.222-0.06-0.341-0.091v-4.581   c0.994,0.233,2,0.654,3.05,1.271c0.377,0.219,0.754,0.346,1.229,0.346c1.259,0,2.267-0.977,2.267-2.237   c0-0.945-0.536-1.607-1.072-1.923c-1.596-1.013-3.428-1.638-5.474-1.852V5.991c0-0.726-0.587-1.313-1.313-1.313   c-0.726,0-1.313,0.588-1.313,1.313v2.64c-3.906,0.404-6.61,2.904-6.61,6.563v0.063c0,4.14,2.581,5.461,6.61,6.551v4.889   c-1.329-0.309-2.546-0.901-3.681-1.736c-0.315-0.221-0.757-0.441-1.385-0.441c-1.259,0-2.267,0.976-2.267,2.237   C10.948,27.512,11.325,28.206,11.861,28.583z M20.908,22.561c2.016,0.674,2.514,1.272,2.514,2.243v0.063   c0,1.13-0.956,1.838-2.514,2.007V22.561z M16.491,14.818v-0.064c0-0.843,0.627-1.532,1.79-1.794v3.87   C16.919,16.3,16.491,15.769,16.491,14.818z"/>
</g>
</svg>